<svg width="150" height="30" viewBox="0 0 150 30" fill="none" xmlns="http://www.w3.org/2000/svg">
<path d="M25.4125 20.8885H13.8068C10.8245 20.8885 9.33471 19.9493 9.33736 18.0709H17.1895C20.3438 18.0709 22.7219 17.6173 24.3159 16.695C27.1874 15.0903 28.6218 12.6114 28.6192 9.25852C28.6192 6.48414 27.5809 4.24826 25.5044 2.55083C23.4279 0.853407 20.683 0.00313063 17.2696 0C12.5708 0 8.51827 1.73624 5.11216 5.20872C1.70603 8.68122 0.00197762 12.8071 0 17.5863C0 21.3055 1.07847 24.1331 3.2354 26.069C5.39233 28.005 8.53083 28.9705 12.6508 28.9655H23.7315C25.808 28.9655 27.4307 28.5513 28.5915 27.7098C29.7524 26.8683 30.3249 25.6962 30.3249 24.1879C30.3269 21.9902 28.6894 20.8903 25.4125 20.8885ZM16.9137 7.59052C18.6362 7.59052 19.534 8.24793 19.6151 9.55717C19.6955 10.7243 18.3395 11.3081 15.5471 11.3088H11.2359C12.6195 8.82745 14.5121 7.58803 16.9137 7.59052Z" fill="#2180D9"/>
<path d="M19.6155 9.55724C19.6959 10.7243 18.34 11.3082 15.5476 11.3088H11.2363C12.6207 8.82746 14.5133 7.58805 16.9141 7.59058C18.6366 7.59058 19.5345 8.24329 19.6155 9.55724Z" fill="#2180D9"/>
<path d="M24.8425 5.23421C24.8366 5.09706 24.711 5.0238 24.5301 5.05104C23.7753 5.17628 23.0205 5.29741 22.2657 5.41452C17.6394 6.1596 13.0094 6.90185 8.37585 7.64135L7.21105 7.82916C7.16004 7.83159 7.11146 7.85041 7.07323 7.88248C7.03495 7.91455 7.00928 7.958 7.0004 8.00574C6.99293 8.05426 7.00338 8.10376 7.03007 8.14571C7.05677 8.18771 7.09803 8.21957 7.14677 8.23581C7.1863 8.25179 7.22291 8.27057 7.26244 8.28748C8.53868 8.86855 9.81455 9.44926 11.0901 10.0297C11.1275 10.0438 11.1597 10.068 11.1826 10.0995C11.2054 10.1309 11.218 10.1681 11.2187 10.2062C11.3571 11.6501 11.4966 13.0939 11.637 14.5378C11.633 14.5861 11.6436 14.6344 11.6677 14.6772C11.6917 14.72 11.728 14.7553 11.7724 14.7792C11.8792 14.8261 11.9702 14.7792 12.0513 14.7181C13.0111 14.0438 13.9709 13.3685 14.9307 12.6923C14.9422 12.6813 14.9558 12.6727 14.9708 12.6668C14.9859 12.6608 15.002 12.6578 15.0182 12.6578C15.0344 12.6578 15.0506 12.6608 15.0656 12.6668C15.0806 12.6727 15.0942 12.6813 15.1057 12.6923C16.2376 13.4587 17.3704 14.2238 18.5043 14.9877C18.6862 15.1097 18.8009 15.0863 18.9126 14.905C20.7775 11.8871 22.6434 8.86979 24.5103 5.85309C24.6211 5.67562 24.7288 5.49717 24.8356 5.32343C24.8376 5.28867 24.8435 5.25955 24.8425 5.23421ZM11.3037 9.66619C10.1992 9.16095 9.09672 8.66316 7.99219 8.1635C7.99219 8.1635 7.98228 8.15414 7.96354 8.13345L22.2894 5.83622C22.2902 5.84274 22.2902 5.84936 22.2894 5.85593C21.977 5.96678 21.6635 6.08041 21.35 6.19121C18.0824 7.35329 14.8143 8.51414 11.546 9.67374C11.5076 9.68988 11.4659 9.69759 11.4239 9.69629C11.382 9.695 11.3409 9.68471 11.3037 9.66619ZM12.0473 13.7432C12.0473 13.7535 12.0325 13.762 12.0117 13.7921C12.0038 13.7413 11.9979 13.7094 11.9959 13.6784C11.8812 12.517 11.7662 11.3539 11.6508 10.1893C11.6439 10.117 11.6508 10.0804 11.7329 10.0513C15.1324 8.84724 18.5293 7.64067 21.9236 6.43167C21.4707 6.704 21.0178 6.98295 20.5541 7.23841C18.1855 8.54512 15.8124 9.84779 13.4346 11.1464C13.3633 11.1894 13.3059 11.2501 13.2685 11.322C12.8605 12.1278 12.4534 12.9349 12.0473 13.7432ZM12.4685 13.9057C12.4657 13.9011 12.462 13.8969 12.4577 13.8935C12.8314 13.1534 13.2022 12.4134 13.58 11.6648C13.9349 11.9024 14.2801 12.1344 14.641 12.3786C13.9103 12.8923 13.1904 13.3995 12.4685 13.9057ZM18.621 14.5509C17.0487 13.4925 15.4824 12.4359 13.9003 11.3689C17.2729 9.52126 20.6348 7.67859 23.9862 5.84088L23.9981 5.85029C22.209 8.7486 20.4166 11.6488 18.621 14.5509Z" fill="white"/>
<path d="M24.8425 5.23421C24.8366 5.09706 24.711 5.0238 24.5301 5.05104C23.7753 5.17628 23.0205 5.29741 22.2657 5.41452C17.6394 6.1596 13.0094 6.90185 8.37585 7.64135L7.21105 7.82916C7.16004 7.83159 7.11146 7.85041 7.07323 7.88248C7.03495 7.91455 7.00928 7.958 7.0004 8.00574C6.99293 8.05426 7.00338 8.10376 7.03007 8.14571C7.05677 8.18771 7.09803 8.21957 7.14677 8.23581C7.1863 8.25179 7.22291 8.27057 7.26244 8.28748C8.53868 8.86855 9.81455 9.44926 11.0901 10.0297C11.1275 10.0438 11.1597 10.068 11.1826 10.0995C11.2054 10.1309 11.218 10.1681 11.2187 10.2062C11.3571 11.6501 11.4966 13.0939 11.637 14.5378C11.633 14.5861 11.6436 14.6344 11.6677 14.6772C11.6917 14.72 11.728 14.7553 11.7724 14.7792C11.8792 14.8261 11.9702 14.7792 12.0513 14.7181C13.0111 14.0438 13.9709 13.3685 14.9307 12.6923C14.9422 12.6813 14.9558 12.6727 14.9708 12.6668C14.9859 12.6608 15.002 12.6578 15.0182 12.6578C15.0344 12.6578 15.0506 12.6608 15.0656 12.6668C15.0806 12.6727 15.0942 12.6813 15.1057 12.6923C16.2376 13.4587 17.3704 14.2238 18.5043 14.9877C18.6862 15.1097 18.8009 15.0863 18.9126 14.905C20.7775 11.8871 22.6434 8.86979 24.5103 5.85309C24.6211 5.67562 24.7288 5.49717 24.8356 5.32343C24.8376 5.28867 24.8435 5.25955 24.8425 5.23421ZM11.3037 9.66619C10.1992 9.16095 9.09672 8.66316 7.99219 8.1635C7.99219 8.1635 7.98228 8.15414 7.96354 8.13345L22.2894 5.83622C22.2902 5.84274 22.2902 5.84936 22.2894 5.85593C21.977 5.96678 21.6635 6.08041 21.35 6.19121C18.0824 7.35329 14.8143 8.51414 11.546 9.67374C11.5076 9.68988 11.4659 9.69759 11.4239 9.69629C11.382 9.695 11.3409 9.68471 11.3037 9.66619ZM12.0473 13.7432C12.0473 13.7535 12.0325 13.762 12.0117 13.7921C12.0038 13.7413 11.9979 13.7094 11.9959 13.6784C11.8812 12.517 11.7662 11.3539 11.6508 10.1893C11.6439 10.117 11.6508 10.0804 11.7329 10.0513C15.1324 8.84724 18.5293 7.64067 21.9236 6.43167L22.0936 6.33117C22.1006 6.34245 22.1104 6.35367 22.1164 6.36495L22.057 6.38471C22.0136 6.40255 21.9671 6.41662 21.9236 6.43167C21.4707 6.704 21.0178 6.98295 20.5541 7.23841C18.1855 8.54512 15.8124 9.84779 13.4346 11.1464C13.3633 11.1894 13.3059 11.2501 13.2685 11.322C12.8605 12.1278 12.4534 12.9349 12.0473 13.7432ZM12.4685 13.9057C12.4657 13.9011 12.462 13.8969 12.4577 13.8935C12.8314 13.1534 13.2022 12.4134 13.58 11.6648C13.9349 11.9024 14.2801 12.1344 14.641 12.3786C13.9103 12.8923 13.1904 13.3995 12.4685 13.9057ZM18.621 14.5509C17.0487 13.4925 15.4824 12.4359 13.9003 11.3689C17.2729 9.52126 20.6348 7.67859 23.9862 5.84088L23.9981 5.85029C22.209 8.7486 20.4166 11.6488 18.621 14.5509Z" fill="white"/>
<path d="M24.0002 5.85023C22.2097 8.74854 20.4167 11.6488 18.621 14.5509C17.0488 13.4924 15.4825 12.4358 13.9004 11.3689C17.2729 9.5212 20.6349 7.67853 23.9863 5.84082L24.0002 5.85023Z" fill="white"/>
<path d="M14.6413 12.3783C13.9106 12.8921 13.1907 13.3992 12.466 13.9054C12.4631 13.9008 12.4595 13.8967 12.4551 13.8932C12.8288 13.1532 13.1997 12.4131 13.5774 11.6646C13.9353 11.9022 14.2804 12.1369 14.6413 12.3783Z" fill="white"/>
<path d="M21.9243 6.43164C21.4714 6.70402 21.0185 6.98297 20.5548 7.23843C18.1862 8.54514 15.8131 9.84781 13.4353 11.1464C13.364 11.1894 13.3066 11.2501 13.2692 11.322C12.8585 12.1278 12.4505 12.9349 12.045 13.7432C12.045 13.7536 12.0302 13.762 12.0094 13.7921C12.0015 13.7413 11.9956 13.7094 11.9936 13.6785C11.8789 12.517 11.7639 11.3539 11.6485 10.1893C11.6416 10.117 11.6485 10.0804 11.7306 10.0513C15.1321 8.84726 18.53 7.64069 21.9243 6.43164Z" fill="#2180D9"/>
<path d="M22.2928 5.85594C21.9803 5.96673 21.6668 6.08037 21.3533 6.19122C18.083 7.3533 14.8137 8.51415 11.5453 9.6737C11.5067 9.68927 11.4648 9.69635 11.4229 9.69439C11.3809 9.69247 11.3399 9.68151 11.3031 9.66242C10.1986 9.15718 9.09607 8.65939 7.99154 8.15973C7.99154 8.15973 7.98163 8.15037 7.96289 8.12968L22.2888 5.83618C22.2908 5.8426 22.2922 5.84922 22.2928 5.85594Z" fill="white"/>
<path d="M42.1393 23.276L39.3581 19.4277L37.0187 23.276H32.21L36.9927 16.2001L32.0801 9.42218H37.0707L39.8519 13.2456L42.1913 9.42218H46.9999L42.1393 16.3987L47.1299 23.276H42.1393ZM53.2874 11.3836C53.7206 10.738 54.3185 10.2167 55.081 9.81943C55.8434 9.42218 56.7359 9.22357 57.7582 9.22357C58.9539 9.22357 60.0369 9.51322 61.0073 10.0925C61.9777 10.6718 62.7402 11.4994 63.2947 12.5753C63.8665 13.6512 64.1525 14.9008 64.1525 16.3243C64.1525 17.7477 63.8665 19.0056 63.2947 20.098C62.7402 21.1739 61.9777 22.0098 61.0073 22.6056C60.0369 23.1849 58.9539 23.4746 57.7582 23.4746C56.7532 23.4746 55.8608 23.276 55.081 22.8787C54.3185 22.4815 53.7206 21.9684 53.2874 21.3394V29.8801H48.8426V9.42218H53.2874V11.3836ZM59.6297 16.3243C59.6297 15.2649 59.3178 14.4374 58.694 13.8415C58.0875 13.2291 57.3337 12.9229 56.4326 12.9229C55.5488 12.9229 54.7951 13.2291 54.1712 13.8415C53.5646 14.4539 53.2614 15.2898 53.2614 16.3491C53.2614 17.4084 53.5646 18.2443 54.1712 18.8567C54.7951 19.4691 55.5488 19.7753 56.4326 19.7753C57.3164 19.7753 58.0702 19.4691 58.694 18.8567C59.3178 18.2277 59.6297 17.3836 59.6297 16.3243ZM70.929 4.90356V23.276H66.4842V4.90356H70.929ZM80.7521 23.4746C79.3312 23.4746 78.0488 23.1849 76.9052 22.6056C75.7788 22.0263 74.8864 21.1987 74.2279 20.1229C73.5868 19.047 73.2662 17.7891 73.2662 16.3491C73.2662 14.9256 73.5954 13.676 74.2539 12.6001C74.9124 11.5077 75.8135 10.6718 76.9572 10.0925C78.1008 9.51322 79.3831 9.22357 80.8041 9.22357C82.225 9.22357 83.5073 9.51322 84.651 10.0925C85.7947 10.6718 86.6958 11.5077 87.3543 12.6001C88.0127 13.676 88.342 14.9256 88.342 16.3491C88.342 17.7725 88.0041 19.0305 87.3283 20.1229C86.6698 21.1987 85.76 22.0263 84.599 22.6056C83.4553 23.1849 82.173 23.4746 80.7521 23.4746ZM80.7521 19.8001C81.6012 19.8001 82.3203 19.5022 82.9095 18.9063C83.516 18.3105 83.8192 17.458 83.8192 16.3491C83.8192 15.2401 83.5247 14.3877 82.9355 13.7918C82.3636 13.196 81.6532 12.898 80.8041 12.898C79.9377 12.898 79.2185 13.196 78.6467 13.7918C78.0748 14.3712 77.7889 15.2236 77.7889 16.3491C77.7889 17.458 78.0662 18.3105 78.6207 18.9063C79.1925 19.5022 79.903 19.8001 80.7521 19.8001ZM95.1451 11.7312C95.6649 10.9698 96.3147 10.3739 97.0945 9.94356C97.8743 9.49667 98.7407 9.27322 99.6938 9.27322V13.767H98.4721C97.3631 13.767 96.5313 13.9987 95.9768 14.4622C95.4223 14.9091 95.1451 15.7036 95.1451 16.8456V23.276H90.7003V9.42218H95.1451V11.7312ZM115.49 16.1256C115.49 16.5229 115.464 16.9367 115.412 17.367H105.353C105.422 18.2277 105.708 18.8898 106.211 19.3532C106.731 19.8001 107.363 20.0236 108.108 20.0236C109.217 20.0236 109.989 19.5767 110.422 18.6829H115.152C114.91 19.5932 114.468 20.4125 113.827 21.1408C113.203 21.8691 112.415 22.4401 111.461 22.8539C110.508 23.2677 109.443 23.4746 108.264 23.4746C106.843 23.4746 105.578 23.1849 104.469 22.6056C103.36 22.0263 102.494 21.1987 101.87 20.1229C101.246 19.047 100.934 17.7891 100.934 16.3491C100.934 14.9091 101.238 13.6512 101.844 12.5753C102.468 11.4994 103.334 10.6718 104.443 10.0925C105.552 9.51322 106.826 9.22357 108.264 9.22357C109.668 9.22357 110.916 9.50494 112.007 10.0677C113.099 10.6305 113.948 11.4332 114.555 12.476C115.178 13.5187 115.49 14.7353 115.49 16.1256ZM110.942 15.0084C110.942 14.2801 110.682 13.7008 110.162 13.2705C109.642 12.8401 108.992 12.6249 108.212 12.6249C107.467 12.6249 106.835 12.8318 106.315 13.2456C105.812 13.6594 105.5 14.247 105.379 15.0084H110.942ZM126.699 23.276L122.28 17.4663V23.276H117.835V4.90356H122.28V15.058L126.673 9.42218H132.157L126.127 16.3739L132.209 23.276H126.699ZM133.019 16.3243C133.019 14.9008 133.297 13.6512 133.851 12.5753C134.423 11.4994 135.194 10.6718 136.164 10.0925C137.135 9.51322 138.218 9.22357 139.413 9.22357C140.436 9.22357 141.328 9.42218 142.091 9.81943C142.871 10.2167 143.468 10.738 143.884 11.3836V9.42218H148.329V23.276H143.884V21.3146C143.451 21.9601 142.845 22.4815 142.065 22.8787C141.302 23.276 140.41 23.4746 139.387 23.4746C138.209 23.4746 137.135 23.1849 136.164 22.6056C135.194 22.0098 134.423 21.1739 133.851 20.098C133.297 19.0056 133.019 17.7477 133.019 16.3243ZM143.884 16.3491C143.884 15.2898 143.572 14.4539 142.948 13.8415C142.342 13.2291 141.597 12.9229 140.713 12.9229C139.829 12.9229 139.076 13.2291 138.452 13.8415C137.845 14.4374 137.542 15.2649 137.542 16.3243C137.542 17.3836 137.845 18.2277 138.452 18.8567C139.076 19.4691 139.829 19.7753 140.713 19.7753C141.597 19.7753 142.342 19.4691 142.948 18.8567C143.572 18.2443 143.884 17.4084 143.884 16.3491Z" fill="#2180D9"/>
</svg>
